<?xml version="1.0" standalone="no"?>
<!DOCTYPE svg PUBLIC "-//W3C//DTD SVG 20010904//EN"
 "http://www.w3.org/TR/2001/REC-SVG-20010904/DTD/svg10.dtd">
<svg version="1.0" xmlns="http://www.w3.org/2000/svg"
 width="823.000000pt" height="144.000000pt" viewBox="0 0 823.000000 144.000000"
 preserveAspectRatio="xMidYMid meet">

<g transform="translate(0.000000,144.000000) scale(0.100000,-0.100000)"
fill="#000000" stroke="none">
<path d="M7861 1289 c-90 -32 -94 -39 -87 -144 l7 -90 -48 -17 c-26 -9 -77
-35 -113 -57 l-65 -39 -3 37 c-6 64 -20 71 -147 71 -142 0 -140 2 -149 -142
-3 -59 -10 -129 -16 -155 -15 -69 -40 -134 -50 -128 -19 12 -21 114 -6 218 21
141 21 190 -1 210 -13 11 -51 17 -131 22 -109 7 -114 7 -137 -15 -18 -17 -25
-34 -25 -63 l0 -39 -40 35 c-77 70 -111 82 -240 82 -127 0 -149 -7 -220 -71
l-39 -36 6 119 c5 109 4 119 -14 135 -26 24 -207 78 -259 78 -62 0 -74 -19
-74 -122 l0 -86 -67 -12 c-177 -30 -338 -135 -399 -258 -28 -56 -27 -212 2
-267 51 -94 174 -180 323 -225 69 -21 87 -22 280 -18 l206 6 24 30 25 30 40
-27 c60 -41 99 -51 194 -51 122 0 155 13 234 90 l67 65 33 -44 c18 -25 50 -58
71 -75 35 -28 47 -31 118 -35 44 -2 96 0 116 4 48 9 151 107 183 175 l23 50
68 -65 c109 -106 216 -144 427 -152 118 -5 135 -4 152 12 29 26 27 57 -35 529
-42 320 -59 424 -72 438 -21 24 -90 23 -162 -3z m131 -36 c10 -13 30 -143 67
-428 28 -225 52 -422 51 -436 0 -46 -16 -50 -146 -39 -196 16 -304 59 -395
158 -53 56 -78 109 -80 163 0 13 -10 -10 -22 -51 -30 -99 -59 -155 -110 -208
-51 -52 -78 -67 -137 -76 -117 -16 -209 53 -261 195 l-23 61 -11 -38 c-18 -60
-40 -95 -87 -141 -59 -57 -106 -75 -199 -76 -97 -1 -167 31 -234 105 l-45 50
0 -55 c0 -77 -7 -81 -161 -85 -151 -5 -159 -2 -159 67 0 44 24 322 34 399 4
23 2 30 -7 25 -7 -4 -43 -13 -80 -20 -162 -27 -247 -121 -179 -197 23 -25 80
-53 138 -67 75 -18 84 -30 84 -114 0 -81 -9 -95 -58 -95 -38 0 -162 40 -225
71 -57 30 -146 116 -168 164 -27 59 -25 157 5 220 56 121 274 245 431 245 53
0 65 -13 65 -74 0 -69 6 -54 13 32 5 64 4 72 -12 72 -30 0 -41 22 -41 80 0 66
19 100 57 100 39 0 196 -50 216 -69 16 -16 16 -31 -17 -326 -19 -171 -33 -311
-32 -313 2 -1 17 1 35 4 25 5 30 10 25 23 -4 9 -10 60 -12 113 -5 125 12 178
79 252 68 75 120 99 219 99 126 1 214 -53 278 -172 l30 -53 4 95 c2 59 9 101
17 111 17 20 153 22 191 3 22 -11 25 -19 25 -62 -1 -28 -7 -94 -14 -147 -18
-145 5 -263 50 -256 49 7 88 132 96 308 3 69 10 131 16 138 15 19 181 17 197
-3 9 -10 11 -43 8 -109 l-4 -93 27 41 c42 68 126 124 244 167 28 10 49 23 48
28 -2 6 -6 48 -9 94 -7 94 -9 91 66 119 59 22 94 22 112 1z m-1967 -565 c-4
-57 -8 -104 -9 -106 -7 -7 -128 38 -155 57 -65 47 -16 111 106 140 70 16 66
22 58 -91z"/>
<path d="M6557 819 c-90 -70 -27 -279 83 -279 82 0 120 122 70 225 -35 72
-101 95 -153 54z m97 -49 c40 -48 51 -98 32 -143 -18 -44 -38 -54 -71 -37 -32
17 -68 103 -60 142 8 33 38 68 59 68 8 0 26 -14 40 -30z"/>
<path d="M7783 795 c-116 -50 -111 -151 10 -205 64 -30 80 -27 73 13 -3 17
-11 71 -17 120 -7 50 -17 87 -23 87 -6 -1 -26 -7 -43 -15z m31 -91 c3 -26 6
-56 6 -67 0 -19 -1 -19 -27 -2 -56 35 -65 63 -33 95 32 32 47 25 54 -26z"/>
<path d="M1137 1282 c-13 -14 -17 -39 -17 -110 0 -50 5 -94 10 -97 28 -17 1
-25 -88 -25 -127 0 -127 0 -136 -142 -3 -59 -10 -129 -16 -155 -15 -69 -40
-134 -50 -128 -19 12 -21 114 -6 218 21 141 21 190 -1 209 -28 23 -271 43
-353 28 -176 -31 -336 -136 -396 -258 -28 -56 -27 -212 2 -267 66 -123 285
-245 439 -245 62 0 85 19 85 73 l0 37 40 -44 c23 -24 56 -51 74 -60 40 -19
179 -22 223 -5 32 12 117 90 144 134 l19 30 0 -66 c0 -102 4 -104 198 -96 153
6 158 7 180 32 20 23 22 37 22 124 0 109 -11 131 -64 131 l-28 0 6 68 c13 129
8 122 83 122 l66 0 -8 -223 c-9 -276 -15 -263 132 -254 146 10 139 -2 148 273
6 198 9 224 24 224 9 0 26 3 38 6 20 6 21 2 27 -73 18 -228 84 -376 190 -427
40 -19 179 -22 223 -5 38 14 129 104 156 154 l22 40 5 -77 c8 -111 17 -118
140 -118 139 0 134 -9 128 231 -6 179 -5 192 13 208 18 15 111 52 117 47 1 -2
6 -53 11 -114 6 -81 15 -124 31 -157 34 -70 113 -150 182 -184 57 -29 69 -31
169 -31 139 0 196 20 279 97 57 52 60 58 60 102 0 42 -5 51 -54 102 l-54 57
29 21 c25 19 29 28 29 69 0 92 -87 220 -190 280 -42 25 -53 27 -160 27 -100 0
-120 -3 -157 -23 l-43 -22 0 28 c0 67 -75 80 -205 36 -70 -24 -78 -24 -94 -10
-24 22 -82 20 -176 -4 -47 -12 -111 -20 -160 -20 -108 0 -111 -3 -119 -142 -3
-59 -10 -129 -16 -155 -15 -69 -40 -134 -50 -128 -19 12 -21 114 -6 218 21
141 21 190 -2 209 -13 12 -62 19 -194 29 l-176 12 5 71 c5 63 3 74 -17 99 -25
31 -50 34 -163 16 -100 -16 -107 -24 -107 -124 0 -92 -2 -95 -71 -95 l-39 0 0
73 c0 92 -5 97 -136 137 -116 35 -173 38 -197 12z m182 -48 c134 -40 126 -12
91 -339 -16 -154 -32 -295 -36 -313 l-5 -33 36 7 c55 10 65 -5 65 -96 0 -59
-4 -81 -16 -91 -23 -19 -268 -26 -289 -9 -9 8 -15 30 -15 59 0 41 40 492 55
614 5 41 3 47 -13 47 -31 0 -42 22 -42 80 0 66 19 100 57 100 14 0 64 -12 112
-26z m501 1 c9 -11 11 -40 7 -102 l-5 -86 61 7 c53 5 63 3 83 -15 14 -13 24
-17 29 -10 9 15 154 14 185 -2 22 -11 25 -19 25 -62 -1 -28 -7 -94 -14 -147
-18 -145 5 -263 50 -256 49 7 88 132 96 308 3 69 10 131 16 138 7 9 37 13 101
12 50 -1 98 0 106 3 40 15 99 27 130 27 40 0 60 -14 60 -43 0 -18 1 -19 26 -2
41 27 151 65 188 65 44 0 56 -17 63 -85 l6 -56 36 35 c20 19 54 42 76 52 49
20 166 23 220 4 84 -28 205 -181 205 -259 0 -27 -13 -39 -145 -129 -144 -98
-155 -112 -92 -112 33 0 119 44 146 74 14 14 34 26 46 26 27 0 95 -81 95 -113
0 -33 -75 -101 -146 -134 -75 -34 -215 -37 -287 -5 -70 31 -149 111 -183 185
-31 70 -44 195 -26 260 6 20 7 37 4 37 -55 -1 -202 -56 -218 -82 -4 -6 -6 -99
-5 -206 2 -138 -1 -197 -10 -208 -15 -18 -152 -20 -167 -1 -5 6 -15 97 -21
201 -7 105 -14 192 -16 195 -3 2 -5 -7 -5 -20 0 -38 -39 -169 -66 -224 -29
-57 -94 -129 -139 -152 -40 -22 -151 -22 -191 0 -104 55 -173 224 -174 430 l0
78 -72 -7 c-40 -4 -76 -11 -79 -16 -3 -5 -9 -109 -13 -231 -4 -158 -10 -225
-19 -234 -7 -7 -46 -16 -88 -19 -61 -5 -77 -4 -88 9 -10 13 -12 65 -9 243 l3
226 -66 -6 c-86 -9 -94 0 -85 92 8 86 33 112 106 112 l48 0 3 84 c5 118 18
130 150 134 31 1 51 -3 59 -13z m-1040 -209 c22 -10 25 -18 25 -61 -1 -28 -7
-94 -14 -147 -18 -145 5 -263 50 -256 49 7 88 132 96 308 3 69 10 131 16 138
13 16 178 17 195 0 42 -42 -19 -420 -85 -526 -26 -42 -95 -112 -128 -129 -40
-22 -151 -22 -191 0 -101 53 -173 224 -174 415 l0 64 -42 -7 c-163 -27 -248
-121 -179 -199 22 -25 79 -53 137 -67 75 -18 84 -30 84 -114 0 -81 -9 -95 -58
-95 -38 0 -162 40 -225 71 -57 30 -146 116 -168 164 -27 59 -25 157 5 220 43
94 180 190 326 229 63 17 287 12 330 -8z m-246 -296 c3 -27 9 -72 12 -100 l6
-49 -54 15 c-74 22 -128 58 -128 88 0 28 22 49 80 75 69 32 77 29 84 -29z"/>
<path d="M3227 800 c-22 -17 -47 -72 -47 -102 0 -16 24 -6 102 41 l80 50 -31
15 c-41 22 -73 20 -104 -4z"/>
<path d="M4148 1071 c-74 -24 -164 -109 -201 -189 -19 -40 -22 -65 -22 -172 0
-120 1 -128 32 -193 36 -76 115 -162 178 -192 28 -14 67 -21 134 -23 126 -5
169 8 241 75 32 29 60 53 63 53 2 0 8 -24 11 -52 10 -72 27 -88 90 -88 69 1
152 21 173 43 16 16 18 39 18 195 0 129 4 185 14 207 l13 30 16 -35 c12 -26
17 -77 20 -205 3 -137 7 -173 19 -187 14 -15 34 -18 133 -18 153 0 150 -3 150
156 0 292 -82 508 -219 581 -60 31 -180 33 -229 3 -22 -13 -50 -20 -86 -20
-57 0 -132 -26 -155 -54 -12 -14 -16 -13 -47 14 -67 59 -110 74 -219 77 -55 1
-112 -2 -127 -6z m247 -56 c61 -29 105 -73 142 -142 l29 -52 -4 62 c-5 71 3
82 76 110 57 23 78 21 96 -5 9 -12 16 -17 16 -10 0 6 18 24 41 39 55 36 147
38 202 4 75 -46 135 -142 169 -269 25 -97 38 -353 18 -377 -16 -20 -194 -22
-207 -2 -4 6 -8 82 -8 167 -1 128 -4 164 -20 209 -37 101 -80 90 -111 -29 -14
-53 -15 -91 -10 -206 7 -159 9 -154 -66 -173 -61 -15 -113 -14 -126 2 -5 6
-15 65 -22 130 -7 64 -17 117 -22 117 -4 0 -8 -8 -8 -17 0 -35 -48 -119 -91
-160 -60 -57 -108 -75 -200 -76 -63 -1 -86 4 -132 26 -67 33 -130 100 -165
175 -35 74 -43 223 -17 301 18 55 85 137 140 171 72 44 193 46 280 5z"/>
<path d="M4207 819 c-90 -70 -27 -279 83 -279 82 0 120 122 70 225 -35 72
-101 95 -153 54z m97 -49 c40 -48 51 -98 32 -143 -18 -44 -38 -54 -71 -37 -32
17 -68 103 -60 142 8 33 38 68 59 68 8 0 26 -14 40 -30z"/>
</g>
</svg>
